<svg id="Camada_1" data-name="Camada 1" xmlns="http://www.w3.org/2000/svg" viewBox="0 0 187.03 45.74"><title>contorno</title><circle cx="108.07" cy="9.82" r="9.7" style="fill:#12f8af;stroke:#fff;stroke-miterlimit:10;stroke-width:0.25px"/><path d="M5.7,36.92V52.64H1.14V12.8h8.4q3.18,0,4.44,1.59a7,7,0,0,1,1.26,4.47v12A7,7,0,0,1,14,35.33q-1.26,1.59-4.44,1.59Zm0-3.9H8.64a2.11,2.11,0,0,0,1.8-.72A3.46,3.46,0,0,0,11,30.2V19.4a2.84,2.84,0,0,0-.54-1.89,2.26,2.26,0,0,0-1.8-.63H5.7Z" transform="translate(-0.14 -8.14)" style="stroke:#fff;stroke-miterlimit:10;stroke-width:2px"/><path d="M30.3,46.1q0,3.54-1.65,5.16t-5.13,1.62q-3.48,0-5.13-1.62T16.74,46.1V30.2q0-3.54,1.65-5.16t5.13-1.62q3.48,0,5.13,1.62T30.3,30.2ZM26.1,30.2q0-2.88-2.58-2.88T20.94,30.2V46.1q0,2.88,2.58,2.88T26.1,46.1Z" transform="translate(-0.14 -8.14)" style="stroke:#fff;stroke-miterlimit:10;stroke-width:2px"/><path d="M42.12,42h4.14V46.1a7.18,7.18,0,0,1-1.59,5.1q-1.59,1.68-5.13,1.68-6.72,0-6.72-6.78V30.2q0-6.78,6.78-6.78,3.48,0,5.07,1.68a7.18,7.18,0,0,1,1.59,5.1v4H42.12v-4q0-2.88-2.52-2.88T37,30.2V46.1Q37,49,39.6,49t2.52-2.88Z" transform="translate(-0.14 -8.14)" style="stroke:#fff;stroke-miterlimit:10;stroke-width:2px"/><path d="M58.74,52.64l-3.6-12H54.9l-1.8,3.84v8.16H48.78V12.32H53.1V35.9h.24q.18-.42.42-1t.78-1.92q.54-1.29,1.53-3.48l2.61-5.79h4.68L58.26,35.6l5,17Z" transform="translate(-0.14 -8.14)" style="stroke:#fff;stroke-miterlimit:10;stroke-width:2px"/><path d="M77.58,46.1q0,6.78-6.9,6.78Q64,52.88,64,46.1V30.2q0-6.78,6.78-6.78t6.84,6.78v9H68.16v7q0,2.88,2.58,2.88t2.58-2.88V42.68h4.26Zm-4.26-16q0-2.94-2.58-2.94t-2.58,2.94v5.94h5.16Z" transform="translate(-0.14 -8.14)" style="stroke:#fff;stroke-miterlimit:10;stroke-width:2px"/><path d="M89.28,36.2H93v9.9a8.16,8.16,0,0,1-1.32,5.13q-1.32,1.65-4.8,1.65t-5.16-1.65Q80.1,49.58,80.1,46.1V15.68h4.26v8H93v3.9H84.36V46.1q0,2.88,2.58,2.88a2.15,2.15,0,0,0,1.8-.69,3.56,3.56,0,0,0,.54-2.19Z" transform="translate(-0.14 -8.14)" style="stroke:#fff;stroke-miterlimit:10;stroke-width:2px"/><path d="M110.76,25v-5.1a3.49,3.49,0,0,0-.69-2.28,2.6,2.6,0,0,0-2.13-.84,2.68,2.68,0,0,0-2.07.75,2.77,2.77,0,0,0-.69,1.95v4.26a7.24,7.24,0,0,0,.33,2.55A5.11,5.11,0,0,0,106.8,28a20.36,20.36,0,0,0,1.68,1.5q.9.72,1.83,1.38t1.77,1.35a13.68,13.68,0,0,1,1.44,1.35A6.86,6.86,0,0,1,115,36a11.14,11.14,0,0,1,.48,3.63v5.82A7.93,7.93,0,0,1,113.76,51q-1.74,1.89-5.7,1.89t-5.73-2q-1.77-1.95-1.77-5.79V40.7h4.26v4.8q0,3.24,3.06,3.24,2.88,0,2.88-2.94v-5a8.76,8.76,0,0,0-.39-3.06,5.88,5.88,0,0,0-1.47-2,34.17,34.17,0,0,0-3.27-2.79,15.11,15.11,0,0,1-2.91-2.85,10.53,10.53,0,0,1-2-6.6V19.4a7.09,7.09,0,0,1,1.71-4.95q1.71-1.89,5.43-1.89a8.81,8.81,0,0,1,3.36.57,5.2,5.2,0,0,1,2.19,1.62,6.67,6.67,0,0,1,1.17,2.49,12.84,12.84,0,0,1,.36,3.12V25Z" transform="translate(-0.14 -8.14)" style="stroke:#fff;stroke-miterlimit:10;stroke-width:2px"/><path d="M127,36.2h3.72v9.9a8.16,8.16,0,0,1-1.32,5.13q-1.32,1.65-4.8,1.65t-5.16-1.65q-1.62-1.65-1.62-5.13V15.68H122v8h8.64v3.9H122V46.1Q122,49,124.62,49a2.15,2.15,0,0,0,1.8-.69A3.56,3.56,0,0,0,127,46.1Z" transform="translate(-0.14 -8.14)" style="stroke:#fff;stroke-miterlimit:10;stroke-width:2px"/><path d="M137.58,23.66V46a4.07,4.07,0,0,0,.54,2.43,2.23,2.23,0,0,0,1.86.69,2.19,2.19,0,0,0,1.86-.72,6.23,6.23,0,0,0,.84-2.52V23.66H147v29h-4l-.12-2.94h-.24a5.87,5.87,0,0,1-1.8,2.46,4.61,4.61,0,0,1-2.7.72q-2.94,0-3.93-1.86a10.79,10.79,0,0,1-1-5V23.66Z" transform="translate(-0.14 -8.14)" style="stroke:#fff;stroke-miterlimit:10;stroke-width:2px"/><path d="M159.42,52.64l-.13-2.94h-.24a4.59,4.59,0,0,1-4.5,3.18,4.74,4.74,0,0,1-3.72-1.47,6,6,0,0,1-1.32-4.17V29a5.79,5.79,0,0,1,1.36-4.14,5.41,5.41,0,0,1,6.21-.81,4.62,4.62,0,0,1,1.67,2.07H159V12.32h4.25V52.64Zm-5.53-6.42a3.17,3.17,0,0,0,.63,2.22,2.43,2.43,0,0,0,1.83.66,2.2,2.2,0,0,0,1.81-.75,6.21,6.21,0,0,0,1-2.49V30.44a6.15,6.15,0,0,0-.87-2.55,2.18,2.18,0,0,0-1.83-.75,2.46,2.46,0,0,0-1.87.69,3.18,3.18,0,0,0-.66,2.25Z" transform="translate(-0.14 -8.14)" style="stroke:#fff;stroke-miterlimit:10;stroke-width:2px"/><path d="M165.77,20.54V15h4.32v5.58Zm0,32.1v-29h4.32v29Z" transform="translate(-0.14 -8.14)" style="stroke:#fff;stroke-miterlimit:10;stroke-width:2px"/><path d="M186.17,46.1q0,3.54-1.65,5.16t-5.13,1.62q-3.48,0-5.13-1.62t-1.65-5.16V30.2q0-3.54,1.65-5.16t5.13-1.62q3.48,0,5.13,1.62t1.65,5.16ZM182,30.2q0-2.88-2.58-2.88t-2.58,2.88V46.1q0,2.88,2.58,2.88T182,46.1Z" transform="translate(-0.14 -8.14)" style="stroke:#fff;stroke-miterlimit:10;stroke-width:2px"/></svg>